<svg width="180" height="27" viewBox="0 0 180 27" fill="none" xmlns="http://www.w3.org/2000/svg">
<path d="M79.4219 22V19.9062L84.9766 14.4609C85.5078 13.9245 85.9505 13.4479 86.3047 13.0312C86.6589 12.6146 86.9245 12.2109 87.1016 11.8203C87.2786 11.4297 87.3672 11.013 87.3672 10.5703C87.3672 10.0651 87.2526 9.63281 87.0234 9.27344C86.7943 8.90885 86.4792 8.6276 86.0781 8.42969C85.6771 8.23177 85.2214 8.13281 84.7109 8.13281C84.1849 8.13281 83.724 8.24219 83.3281 8.46094C82.9323 8.67448 82.625 8.97917 82.4063 9.375C82.1927 9.77083 82.0859 10.2422 82.0859 10.7891H79.3281C79.3281 9.77344 79.5599 8.89062 80.0234 8.14062C80.487 7.39062 81.125 6.8099 81.9375 6.39844C82.7552 5.98698 83.6927 5.78125 84.75 5.78125C85.8229 5.78125 86.7656 5.98177 87.5781 6.38281C88.3906 6.78385 89.0208 7.33333 89.4687 8.03125C89.9219 8.72917 90.1484 9.52604 90.1484 10.4219C90.1484 11.0208 90.0339 11.6094 89.8047 12.1875C89.5755 12.7656 89.1719 13.4062 88.5938 14.1094C88.0208 14.8125 87.2161 15.6641 86.1797 16.6641L83.4219 19.4687V19.5781H90.3906V22H79.4219ZM92.4531 19.0312V16.7266L99.2422 6H101.164V9.28125H99.9922L95.4219 16.5234V16.6484H104.898V19.0312H92.4531ZM100.086 22V18.3281L100.117 17.2969V6H102.852V22H100.086ZM118.43 22H113.008V6H118.539C120.128 6 121.492 6.32031 122.633 6.96094C123.779 7.59635 124.659 8.51042 125.273 9.70312C125.888 10.8958 126.195 12.3229 126.195 13.9844C126.195 15.651 125.885 17.0833 125.266 18.2812C124.651 19.4792 123.763 20.3984 122.602 21.0391C121.445 21.6797 120.055 22 118.43 22ZM115.906 19.4922H118.289C119.404 19.4922 120.333 19.2891 121.078 18.8828C121.823 18.4714 122.383 17.8594 122.758 17.0469C123.133 16.2292 123.32 15.2083 123.32 13.9844C123.32 12.7604 123.133 11.7448 122.758 10.9375C122.383 10.125 121.828 9.51823 121.094 9.11719C120.365 8.71094 119.458 8.50781 118.375 8.50781H115.906V19.4922ZM128.824 22V10H131.652V22H128.824ZM130.246 8.29688C129.798 8.29688 129.413 8.14844 129.09 7.85156C128.767 7.54948 128.605 7.1875 128.605 6.76562C128.605 6.33854 128.767 5.97656 129.09 5.67969C129.413 5.3776 129.798 5.22656 130.246 5.22656C130.699 5.22656 131.085 5.3776 131.402 5.67969C131.725 5.97656 131.887 6.33854 131.887 6.76562C131.887 7.1875 131.725 7.54948 131.402 7.85156C131.085 8.14844 130.699 8.29688 130.246 8.29688ZM139.779 26.75C138.764 26.75 137.891 26.612 137.162 26.3359C136.433 26.0651 135.847 25.7005 135.404 25.2422C134.962 24.7839 134.654 24.276 134.482 23.7188L137.029 23.1016C137.144 23.3359 137.311 23.5677 137.529 23.7969C137.748 24.0313 138.042 24.224 138.412 24.375C138.787 24.5313 139.258 24.6094 139.826 24.6094C140.628 24.6094 141.292 24.4141 141.818 24.0234C142.344 23.638 142.607 23.0026 142.607 22.1172V19.8437H142.467C142.321 20.1354 142.107 20.4349 141.826 20.7422C141.55 21.0495 141.183 21.3073 140.725 21.5156C140.271 21.724 139.701 21.8281 139.014 21.8281C138.092 21.8281 137.256 21.612 136.506 21.1797C135.761 20.7422 135.167 20.0911 134.725 19.2266C134.287 18.3568 134.068 17.2682 134.068 15.9609C134.068 14.6432 134.287 13.5312 134.725 12.625C135.167 11.7135 135.764 11.0234 136.514 10.5547C137.264 10.0807 138.1 9.84375 139.021 9.84375C139.725 9.84375 140.303 9.96354 140.756 10.2031C141.214 10.4375 141.579 10.7214 141.85 11.0547C142.12 11.3828 142.326 11.6927 142.467 11.9844H142.623V10H145.412V22.1953C145.412 23.2214 145.167 24.0703 144.678 24.7422C144.188 25.4141 143.519 25.9167 142.67 26.25C141.821 26.5833 140.857 26.75 139.779 26.75ZM139.803 19.6094C140.402 19.6094 140.912 19.4635 141.334 19.1719C141.756 18.8802 142.076 18.4609 142.295 17.9141C142.514 17.3672 142.623 16.7109 142.623 15.9453C142.623 15.1901 142.514 14.5286 142.295 13.9609C142.081 13.3932 141.764 12.9531 141.342 12.6406C140.925 12.3229 140.412 12.1641 139.803 12.1641C139.173 12.1641 138.646 12.3281 138.225 12.6562C137.803 12.9844 137.485 13.4349 137.271 14.0078C137.058 14.5755 136.951 15.2214 136.951 15.9453C136.951 16.6797 137.058 17.3229 137.271 17.875C137.49 18.4219 137.811 18.849 138.232 19.1562C138.66 19.4583 139.183 19.6094 139.803 19.6094ZM148.311 22V10H151.139V22H148.311ZM149.732 8.29688C149.285 8.29688 148.899 8.14844 148.576 7.85156C148.253 7.54948 148.092 7.1875 148.092 6.76562C148.092 6.33854 148.253 5.97656 148.576 5.67969C148.899 5.3776 149.285 5.22656 149.732 5.22656C150.186 5.22656 150.571 5.3776 150.889 5.67969C151.212 5.97656 151.373 6.33854 151.373 6.76562C151.373 7.1875 151.212 7.54948 150.889 7.85156C150.571 8.14844 150.186 8.29688 149.732 8.29688ZM160.039 10V12.1875H153.141V10H160.039ZM154.844 7.125H157.672V18.3906C157.672 18.7708 157.729 19.0625 157.844 19.2656C157.964 19.4635 158.12 19.599 158.313 19.6719C158.505 19.7448 158.719 19.7812 158.953 19.7812C159.13 19.7812 159.292 19.7682 159.438 19.7422C159.589 19.7161 159.703 19.6927 159.781 19.6719L160.258 21.8828C160.107 21.9349 159.891 21.9922 159.609 22.0547C159.333 22.1172 158.995 22.1536 158.594 22.1641C157.885 22.1849 157.247 22.0781 156.68 21.8437C156.112 21.6042 155.661 21.2344 155.328 20.7344C155 20.2344 154.839 19.6094 154.844 18.8594V7.125ZM165.857 22.2422C165.097 22.2422 164.412 22.1068 163.803 21.8359C163.199 21.5599 162.719 21.1536 162.365 20.6172C162.016 20.0807 161.842 19.4193 161.842 18.6328C161.842 17.9557 161.967 17.3958 162.217 16.9531C162.467 16.5104 162.808 16.1562 163.24 15.8906C163.673 15.625 164.16 15.4245 164.701 15.2891C165.248 15.1484 165.813 15.0469 166.396 14.9844C167.1 14.9115 167.67 14.8464 168.107 14.7891C168.545 14.7266 168.863 14.6328 169.061 14.5078C169.264 14.3776 169.365 14.1771 169.365 13.9062V13.8594C169.365 13.2708 169.191 12.8151 168.842 12.4922C168.493 12.1693 167.99 12.0078 167.334 12.0078C166.641 12.0078 166.092 12.1589 165.686 12.4609C165.285 12.763 165.014 13.1198 164.873 13.5312L162.232 13.1562C162.441 12.4271 162.785 11.8177 163.264 11.3281C163.743 10.8333 164.329 10.4635 165.021 10.2187C165.714 9.96875 166.48 9.84375 167.318 9.84375C167.896 9.84375 168.472 9.91146 169.045 10.0469C169.618 10.1823 170.141 10.4062 170.615 10.7187C171.089 11.026 171.469 11.4453 171.756 11.9766C172.048 12.5078 172.193 13.1719 172.193 13.9687V22H169.475V20.3516H169.381C169.209 20.6849 168.967 20.9974 168.654 21.2891C168.347 21.5755 167.959 21.8073 167.49 21.9844C167.027 22.1563 166.482 22.2422 165.857 22.2422ZM166.592 20.1641C167.16 20.1641 167.652 20.0521 168.068 19.8281C168.485 19.599 168.805 19.2969 169.029 18.9219C169.258 18.5469 169.373 18.138 169.373 17.6953V16.2812C169.285 16.3542 169.133 16.4219 168.92 16.4844C168.712 16.5469 168.477 16.6016 168.217 16.6484C167.956 16.6953 167.699 16.737 167.443 16.7734C167.188 16.8099 166.967 16.8411 166.779 16.8672C166.357 16.9245 165.98 17.0182 165.646 17.1484C165.313 17.2786 165.05 17.4609 164.857 17.6953C164.665 17.9245 164.568 18.2214 164.568 18.5859C164.568 19.1068 164.758 19.5 165.139 19.7656C165.519 20.0312 166.003 20.1641 166.592 20.1641ZM177.865 6V22H175.037V6H177.865Z" fill="#141413"/>
<line y1="15" x2="66" y2="15" stroke="black" stroke-width="2"/>
</svg>
